<svg width="400" height="140" viewBox="0 0 400 140" fill="none" xmlns="http://www.w3.org/2000/svg">
  <defs>
    <linearGradient id="honey" x1="0" y1="0" x2="1" y2="1">
      <stop stop-color="#f59e0b" offset="0"/>
      <stop stop-color="#d97706" offset="1"/>
    </linearGradient>
  </defs>
  <rect width="400" height="140" rx="28" fill="#0b0c10"/>
  <path d="M90 36 200 12l110 24v46l-110 24L90 82V36Z" fill="url(#honey)" opacity="0.12"/>
  <path d="M102 40 200 18l98 22v42l-98 22-98-22V40Z" stroke="#fbbf24" stroke-width="6" fill="none" stroke-linejoin="round"/>
  <circle cx="200" cy="36" r="10" fill="#f59e0b" stroke="#fef3c7" stroke-width="4"/>
  <path d="M200 46c-10 14-30 22-60 22v18c32 0 52-11 60-18 8 7 28 18 60 18V68c-30 0-50-8-60-22Z" fill="#fcd34d" stroke="#f59e0b" stroke-width="4" stroke-linejoin="round"/>
  <text x="110" y="96" fill="#fef3c7" font-family="'Montserrat', 'Cairo', sans-serif" font-size="32" font-weight="900" letter-spacing="1">Pharma Ruche</text>
  <text x="112" y="122" fill="#c7d2fe" font-family="'Cairo', sans-serif" font-size="18" font-weight="700">مناحل أسامة الصغير</text>
  <text x="272" y="68" fill="#0f172a" font-family="'Montserrat', sans-serif" font-size="11" font-weight="800" letter-spacing="1.5">Direct du Producteur</text>
</svg>
