<svg width="200" height="220" viewBox="0 0 200 220" fill="none" xmlns="http://www.w3.org/2000/svg">
  <defs>
    <linearGradient id="nectar" x1="0" y1="0" x2="1" y2="1">
      <stop offset="0" stop-color="#facc15"/>
      <stop offset="1" stop-color="#d97706"/>
    </linearGradient>
  </defs>
  <g filter="url(#glow)">
    <path d="M100 18 152 48v60l-52 30-52-30V48l52-30Z" fill="url(#nectar)" stroke="#fcd34d" stroke-width="6" stroke-linejoin="round"/>
    <path d="M74 74h52" stroke="#0f172a" stroke-width="7" stroke-linecap="round" stroke-dasharray="14 8" opacity="0.65"/>
    <circle cx="100" cy="60" r="16" fill="#fff7ed" stroke="#0f172a" stroke-width="6"/>
    <path d="M100 46c-3 6-8 10-14 12 7 2 11 7 14 14 3-7 7-12 14-14-7-2-11-6-14-12Z" fill="#0f172a"/>
    <path d="M90 97c5 4 18 4 22 0" stroke="#78350f" stroke-width="6" stroke-linecap="round"/>
  </g>
  <text x="100" y="170" text-anchor="middle" fill="#0f172a" font-family="'Montserrat','Cairo',sans-serif" font-size="20" font-weight="900" letter-spacing="1.5">PHARMA RUCHE</text>
  <text x="100" y="196" text-anchor="middle" fill="#6b7280" font-family="'Cairo',sans-serif" font-size="16" font-weight="800">مناحل أسامة الصغير</text>
  <text x="100" y="214" text-anchor="middle" fill="#d97706" font-family="'Montserrat',sans-serif" font-size="11" font-weight="800" letter-spacing="2">Direct du Producteur</text>
  <filter id="glow" x="30" y="6" width="140" height="152" color-interpolation-filters="sRGB">
    <feGaussianBlur stdDeviation="6" result="blur"/>
    <feMerge>
      <feMergeNode in="blur"/>
      <feMergeNode in="SourceGraphic"/>
    </feMerge>
  </filter>
</svg>
